HIERARCHY
ROOT Hips
{
	OFFSET 0.000000 88.474243 0.000000
	CHANNELS 6 Xposition Yposition Zposition Zrotation Yrotation Xrotation 
	JOINT Hips_Spine
	{
		OFFSET 0.000000 0.000000 0.000000
		CHANNELS 3 Zrotation Yrotation Xrotation
		JOINT Spine
		{
			OFFSET 0.005100 8.711998 -0.691000
			CHANNELS 3 Zrotation Yrotation Xrotation
			JOINT Spine1
			{
				OFFSET -0.009200 8.660301 -1.275000
				CHANNELS 3 Zrotation Yrotation Xrotation
				JOINT Spine2
				{
					OFFSET 0.006300 9.852501 -1.857000
					CHANNELS 3 Zrotation Yrotation Xrotation
					JOINT Spine2_Neck
					{
						OFFSET 0.000000 0.000000 0.000000
						CHANNELS 3 Zrotation Yrotation Xrotation
						JOINT Neck
						{
							OFFSET 0.016300 11.420799 -0.263300
							CHANNELS 3 Zrotation Yrotation Xrotation
							End Site #name: Head
							{
								OFFSET -0.019200 9.262405 2.362500
							}
						}
					}
					JOINT Spine2_LeftShoulder
					{
						OFFSET 0.000000 0.000000 0.000000
						CHANNELS 3 Zrotation Yrotation Xrotation
						JOINT LeftShoulder
						{
							OFFSET 5.616900 6.732201 -0.345700
							CHANNELS 3 Zrotation Yrotation Xrotation
							JOINT LeftArm
							{
								OFFSET 10.664888 -0.183372 -2.440700
								CHANNELS 3 Zrotation Yrotation Xrotation
								JOINT LeftForeArm
								{
									OFFSET 27.459126 0.000000 0.000000
									CHANNELS 3 Zrotation Yrotation Xrotation
									End Site #name: LeftHand
									{
										OFFSET 21.306858 0.000000 0.000000
									}
								}
							}
						}
					}
					JOINT Spine2_RightShoulder
					{
						OFFSET 0.000000 0.000000 0.000000
						CHANNELS 3 Zrotation Yrotation Xrotation
						JOINT RightShoulder
						{
							OFFSET -5.580300 6.737503 -0.344400
							CHANNELS 3 Zrotation Yrotation Xrotation
							JOINT RightArm
							{
								OFFSET -10.679335 -0.188484 -2.383900
								CHANNELS 3 Zrotation Yrotation Xrotation
								JOINT RightForeArm
								{
									OFFSET -27.503529 0.000000 0.000000
									CHANNELS 3 Zrotation Yrotation Xrotation
									End Site #name: RightHand
									{
										OFFSET -21.306808 0.000000 0.000000
									}
								}
							}
						}
					}
				}
			}
		}
	}
	JOINT Hips_LeftUpLeg
	{
		OFFSET 0.000000 0.000000 0.000000
		CHANNELS 3 Zrotation Yrotation Xrotation
		JOINT LeftUpLeg
		{
			OFFSET 6.857700 -6.739601 0.312100
			CHANNELS 3 Zrotation Yrotation Xrotation
			JOINT LeftLeg
			{
				OFFSET -0.367590 -34.731552 -4.572400
				CHANNELS 3 Zrotation Yrotation Xrotation
				End Site #name: LeftFoot
				{
					OFFSET 0.367590 -34.656704 -6.067400
				}
			}
		}
	}
	JOINT Hips_RightUpLeg
	{
		OFFSET 0.000000 0.000000 0.000000
		CHANNELS 3 Zrotation Yrotation Xrotation
		JOINT RightUpLeg
		{
			OFFSET -6.876100 -6.733299 0.301000
			CHANNELS 3 Zrotation Yrotation Xrotation
			JOINT RightLeg
			{
				OFFSET 0.347353 -34.795158 -4.515900
				CHANNELS 3 Zrotation Yrotation Xrotation
				End Site #name: RightFoot
				{
					OFFSET -0.347353 -34.589367 -6.070300
				}
			}
		}
	}
}
MOTION
Frames: 9
Frame Time: 0.041667
-1.579739 0.135762 -0.924719 -0.761979 18.868906 -6.754386 0.000000 0.000000 0.000000 5.807896 1.330451 -3.050810 3.518403 -0.656460 -1.717308 0.000000 0.000000 0.000000 3.602577 -0.300198 -1.575442 2.602638 -2.163919 0.745618 3.265369 -0.783678 -1.410188 -23.760578 1.664631 4.163796 -46.153160 12.427143 19.337241 -0.896643 -27.183347 1.760667 2.990838 -0.276766 -0.856580 14.302461 7.949635 2.258707 60.044654 4.252339 -10.691652 0.911162 36.844687 -0.256884 -0.000000 -0.000000 -0.000000 -4.649054 13.263478 -9.490602 3.980028 10.653202 25.426365 0.000000 0.000000 0.000000 -2.758398 -2.986469 -16.852075 2.026737 -7.696209 10.945176 
-1.935669 0.113777 -0.792600 -0.986662 19.796387 -6.698579 0.000000 0.000000 0.000000 6.177509 1.043258 -2.985322 3.687429 -0.761295 -1.648894 0.000000 0.000000 0.000000 3.719682 -0.353376 -1.516392 2.688447 -2.092291 0.869292 3.423260 -0.853275 -1.321320 -23.221807 1.752732 4.223055 -46.691351 12.711839 19.092330 -0.927039 -28.223708 1.739232 3.121424 -0.352302 -0.830011 14.501566 8.283701 2.340217 59.883693 3.891778 -10.715875 0.910857 36.938933 -0.256062 -0.000000 -0.000000 -0.000000 -3.933809 13.116794 -9.591407 3.462252 10.314476 25.925321 0.000000 -0.000000 0.000000 -2.127267 -3.039772 -17.451464 2.248874 -7.692536 11.443666 
-2.252621 0.084911 -0.620943 -1.199659 20.509046 -6.743231 0.000000 -0.000000 0.000000 6.535086 0.720967 -2.883504 3.856134 -0.872620 -1.552837 0.000000 0.000000 0.000000 3.828603 -0.411143 -1.439911 2.747677 -2.008079 1.006166 3.579749 -0.927105 -1.217984 -22.778478 1.791161 4.226574 -47.094878 12.873992 18.750577 -0.961379 -29.227461 1.712985 3.248191 -0.437372 -0.785789 14.723790 8.615423 2.432992 59.729909 3.565910 -10.710795 0.910999 37.031112 -0.252861 -0.000000 -0.000000 -0.000000 -3.110954 13.046452 -9.261890 2.574509 9.425811 26.500711 0.000000 -0.000000 0.000000 -1.533836 -3.082746 -17.930732 2.472988 -7.707654 12.034737 
-2.522448 0.050100 -0.420519 -1.370504 20.772798 -6.847096 0.000000 -0.000000 0.000000 6.908215 0.362172 -2.726134 4.015567 -0.990124 -1.425515 0.000000 0.000000 0.000000 3.925584 -0.473835 -1.344960 2.774172 -1.920858 1.162085 3.723603 -1.005568 -1.109772 -22.440936 1.800760 4.235493 -47.433059 12.891421 18.372710 -0.983521 -30.102637 1.705662 3.363847 -0.531232 -0.725185 14.972869 8.956688 2.536073 59.583466 3.280421 -10.684961 0.913486 37.182384 -0.250101 -0.000000 -0.000000 -0.000000 -2.195143 12.967476 -8.816495 1.254758 7.555697 27.284011 0.000000 -0.000000 0.000000 -1.014138 -3.041092 -18.296863 2.692505 -7.731098 12.726382 
-2.737108 0.008559 -0.210463 -1.475873 20.537244 -6.971776 0.000000 -0.000000 0.000000 7.296039 -0.043626 -2.532780 4.161055 -1.111856 -1.258024 0.000000 0.000000 0.000000 4.012654 -0.543566 -1.240035 2.762006 -1.889717 1.338496 3.845498 -1.088219 -0.990991 -22.198320 1.791848 4.231998 -47.659720 12.825536 18.060620 -1.009311 -30.845148 1.724853 3.468376 -0.629839 -0.652579 15.230098 9.271019 2.638584 59.439555 3.076716 -10.625965 0.917718 37.460410 -0.244340 -0.000000 -0.000000 -0.000000 -1.265924 12.896252 -8.121028 -0.350793 5.509398 27.582998 0.000000 -0.000000 0.000000 -0.585014 -2.925426 -18.605008 2.899574 -7.793198 13.532529 
-2.892169 -0.037762 -0.011312 -1.512869 19.851221 -7.082853 0.000000 -0.000000 0.000000 7.647805 -0.506471 -2.308171 4.299658 -1.236535 -1.077808 0.000000 0.000000 0.000000 4.086071 -0.615809 -1.127986 2.750804 -1.791884 1.454758 3.956886 -1.172741 -0.867010 -22.028587 1.807611 4.204042 -47.789966 12.667371 17.887395 -1.030878 -31.498633 1.743634 3.562630 -0.731403 -0.569772 15.435915 9.535580 2.726194 59.288337 2.976990 -10.522137 0.926497 37.891021 -0.238508 -0.000000 -0.000000 -0.000000 -0.264585 12.741489 -7.577068 -1.514429 3.828209 28.177746 0.000000 -0.000000 0.000000 -0.219973 -2.639306 -18.867514 3.098712 -7.880157 14.311309 
-2.976558 -0.085096 0.164679 -1.450668 18.635834 -7.129051 0.000000 -0.000000 0.000000 7.965291 -0.983661 -2.059065 4.417839 -1.360249 -0.917588 0.000000 0.000000 0.000000 4.156544 -0.687887 -1.011049 2.750743 -1.658679 1.528573 4.065360 -1.259230 -0.748278 -21.928561 1.843708 4.165436 -47.854778 12.443730 17.812515 -1.050624 -32.022278 1.765036 3.652841 -0.833868 -0.492096 15.561381 9.702811 2.786168 59.133542 2.932356 -10.371108 0.937925 38.500873 -0.233192 -0.000000 -0.000000 -0.000000 0.747611 12.320195 -7.297967 -1.935413 2.551214 30.888537 0.000000 -0.000000 0.000000 0.072075 -2.212977 -19.080986 3.277039 -7.962147 15.023964 
-2.993879 -0.130387 0.305350 -1.320908 17.273189 -7.092278 0.000000 -0.000000 0.000000 8.241978 -1.442132 -1.769147 4.498869 -1.469757 -0.761677 0.000000 0.000000 0.000000 4.223394 -0.756583 -0.897091 2.741755 -1.492440 1.590221 4.170398 -1.342369 -0.603231 -21.888580 1.886249 4.117899 -47.904350 12.127565 17.960579 -1.062336 -32.357576 1.790714 3.741535 -0.937348 -0.422381 15.558394 9.799838 2.821031 58.992555 2.933925 -10.198695 0.952681 39.210124 -0.226443 -0.000000 -0.000000 -0.000000 1.639918 11.587690 -7.320192 -1.595862 1.586148 34.563547 0.000000 -0.000000 0.000000 0.313277 -1.686028 -19.233696 3.438005 -8.028954 15.632286 
-2.948634 -0.172064 0.409071 -1.160234 15.796895 -7.013613 0.000000 -0.000000 0.000000 8.469366 -1.870265 -1.423483 4.567094 -1.557667 -0.624372 0.000000 0.000000 0.000000 4.286201 -0.810924 -0.798507 2.724330 -1.316946 1.640575 4.268430 -1.413384 -0.480821 -21.899335 1.925938 4.049157 -47.928772 11.779324 18.228906 -1.066344 -32.506375 1.815585 3.823104 -1.022707 -0.361255 15.505732 9.875286 2.861199 58.878313 2.996817 -9.998553 0.970086 39.960465 -0.218367 -0.000000 -0.000000 -0.000000 2.513125 10.838186 -7.697700 -1.003665 0.862911 38.634753 0.000000 -0.000000 0.000000 0.485403 -1.054072 -19.337457 3.596083 -8.061655 16.149006 
